<svg width="40" height="40" viewBox="0 0 40 40" fill="none" xmlns="http://www.w3.org/2000/svg">
<g clip-path="url(#clip0_1_107)">
<path d="M12.7475 22.814C11.9665 22.0332 10.7005 22.0332 9.91946 22.814C9.592 23.144 9.39115 23.5787 9.35212 24.042C9.12456 24.0161 8.89581 24.0021 8.66679 24C5.79457 23.9962 3.24369 25.8348 2.33896 28.5608C1.43423 31.2868 2.37962 34.2857 4.68412 36H2.00012C0.895553 36 0.00012207 36.8954 0.00012207 38C0.00012207 39.1046 0.895553 40 2.00012 40H38.0001C39.1047 40 40.0001 39.1046 40.0001 38C40.0001 36.8954 39.1047 36 38.0001 36H35.4668L37.2348 26.574C38.1856 26.2926 38.7853 25.3556 38.6427 24.3744C38.5 23.3932 37.6583 22.6657 36.6668 22.6667C36.6655 21.451 35.8435 20.3895 34.6668 20.084C34.6668 20.056 34.6668 20.028 34.6668 20C34.6653 18.5503 33.7269 17.2678 32.3456 16.8276C30.9643 16.3874 29.4569 16.8905 28.6168 18.072C28.4147 18.0244 28.2078 18.0002 28.0001 18C26.7585 18.0009 25.6812 18.8572 25.4001 20.0667C24.1907 20.3477 23.3344 21.425 23.3335 22.6667C22.3414 22.6644 21.4984 23.3914 21.3551 24.3731C21.2117 25.3547 21.8115 26.2925 22.7628 26.574L24.5335 36H20.0001C19.9979 33.7918 18.2083 32.0022 16.0001 32H15.1935C15.3377 31.3372 15.3709 30.655 15.2915 29.9813C16.0623 29.912 16.7233 29.4024 16.9864 28.6745C17.2495 27.9466 17.0672 27.1322 16.5188 26.586L16.0475 26.1147L38.7475 3.41466C39.2596 2.91088 39.4623 2.17111 39.2783 1.47665C39.0943 0.782196 38.552 0.239764 37.8576 0.0556278C37.1632 -0.128508 36.4234 0.073944 35.9195 0.585998L13.2195 23.286L12.7475 22.814ZM26.0001 21.3333C26.3683 21.3333 26.6668 21.0349 26.6668 20.6667C26.6665 20.2018 26.9084 19.7704 27.3051 19.5281C27.7018 19.2858 28.196 19.2676 28.6095 19.48C28.7715 19.5631 28.9605 19.5762 29.1325 19.5164C29.3045 19.4566 29.4446 19.329 29.5201 19.1633C29.9153 18.314 30.8471 17.8527 31.7621 18.0535C32.6771 18.2542 33.3302 19.0632 33.3335 20C33.3324 20.1725 33.31 20.3443 33.2668 20.5113C33.2129 20.7265 33.2696 20.9544 33.418 21.1193C33.5664 21.2841 33.7871 21.3644 34.0068 21.3333C34.7406 21.337 35.3335 21.9329 35.3335 22.6667H24.6668C24.6668 21.9303 25.2637 21.3333 26.0001 21.3333ZM23.3335 24H36.6668C37.035 24 37.3335 24.2985 37.3335 24.6667C37.3335 25.0349 37.035 25.3333 36.6668 25.3333H23.3335C22.9653 25.3333 22.6668 25.0349 22.6668 24.6667C22.6668 24.2985 22.9653 24 23.3335 24ZM24.1335 26.6667H35.8668L34.1135 36H25.8868L24.1335 26.6667ZM25.3335 37.3333H38.0001C38.3683 37.3333 38.6668 37.6318 38.6668 38C38.6668 38.3682 38.3683 38.6667 38.0001 38.6667H2.00012C1.63193 38.6667 1.33346 38.3682 1.33346 38C1.33346 37.6318 1.63193 37.3333 2.00012 37.3333H25.3335ZM12.6668 32C12.2986 32 12.0001 32.2985 12.0001 32.6667C12.0001 33.0349 12.2986 33.3333 12.6668 33.3333H16.0001C17.4729 33.3333 18.6668 34.5272 18.6668 36H8.66679C5.72127 36 3.33346 33.6122 3.33346 30.6667C3.33346 27.7211 5.72127 25.3333 8.66679 25.3333C9.03691 25.337 9.4057 25.3783 9.76746 25.4567C9.81417 25.5218 9.86493 25.5839 9.91946 25.6427L13.6901 29.414C13.7493 29.4685 13.8116 29.5195 13.8768 29.5667C13.9553 29.9282 13.9966 30.2968 14.0001 30.6667C14.0007 31.1165 13.9436 31.5647 13.8301 32H12.6668ZM15.5761 28.4713C15.4511 28.5965 15.2814 28.6669 15.1045 28.6669C14.9275 28.6669 14.7578 28.5965 14.6328 28.4713L10.8621 24.7C10.6095 24.4384 10.6131 24.0226 10.8702 23.7655C11.1274 23.5083 11.5432 23.5047 11.8048 23.7573L12.7468 24.6993L13.3128 25.2653L15.5755 27.528C15.8357 27.7883 15.8357 28.2103 15.5755 28.4707L15.5761 28.4713ZM36.8621 1.52866C37.0295 1.35536 37.2774 1.28586 37.5105 1.34687C37.7435 1.40788 37.9256 1.58991 37.9866 1.82299C38.0476 2.05608 37.9781 2.30395 37.8048 2.47133L15.1048 25.1713L14.8428 24.91L14.1621 24.2287L36.8621 1.52866Z" fill="black"/>
<path d="M28.0002 28.0001H26.6669C26.2987 28.0001 26.0002 28.2985 26.0002 28.6667C26.0002 29.0349 26.2987 29.3334 26.6669 29.3334H28.0002C28.3684 29.3334 28.6669 29.0349 28.6669 28.6667C28.6669 28.2985 28.3684 28.0001 28.0002 28.0001Z" fill="black"/>
<path d="M32.6669 28.0001H30.6669C30.2987 28.0001 30.0002 28.2985 30.0002 28.6667C30.0002 29.0349 30.2987 29.3334 30.6669 29.3334H32.6669C33.0351 29.3334 33.3336 29.0349 33.3336 28.6667C33.3336 28.2985 33.0351 28.0001 32.6669 28.0001Z" fill="black"/>
<path d="M37.3336 18.6664C38.4382 18.6664 39.3336 17.771 39.3336 16.6664C39.3336 15.5618 38.4382 14.6664 37.3336 14.6664C36.229 14.6664 35.3336 15.5618 35.3336 16.6664C35.3336 17.771 36.229 18.6664 37.3336 18.6664ZM37.3336 15.9997C37.7018 15.9997 38.0003 16.2982 38.0003 16.6664C38.0003 17.0346 37.7018 17.333 37.3336 17.333C36.9654 17.333 36.667 17.0346 36.667 16.6664C36.667 16.2982 36.9654 15.9997 37.3336 15.9997Z" fill="black"/>
<path d="M34.0004 10.667C32.8958 10.667 32.0004 11.5624 32.0004 12.667C32.0004 13.7716 32.8958 14.667 34.0004 14.667C35.1049 14.667 36.0004 13.7716 36.0004 12.667C36.0004 11.5624 35.1049 10.667 34.0004 10.667ZM34.0004 13.3337C33.6322 13.3337 33.3337 13.0352 33.3337 12.667C33.3337 12.2988 33.6322 12.0003 34.0004 12.0003C34.3686 12.0003 34.667 12.2988 34.667 12.667C34.667 13.0352 34.3686 13.3337 34.0004 13.3337Z" fill="black"/>
<path d="M17.9941 0.000244201C17.6334 9.24674e-05 17.3379 0.286959 17.3275 0.647578V0.661578V0.666911C17.3275 0.912244 17.2668 6.66691 11.9875 6.66691C11.6193 6.66691 11.3208 6.96539 11.3208 7.33358C11.3208 7.70177 11.6193 8.00025 11.9875 8.00025C17.2461 8.00025 17.3268 13.7562 17.3275 14.0002C17.3225 14.3684 17.6169 14.6709 17.9851 14.6759C18.3533 14.6809 18.6558 14.3864 18.6608 14.0182V14.0042V14.0002C18.6608 13.7549 18.7215 8.00025 24.0001 8.00025C24.3683 8.00025 24.6668 7.70177 24.6668 7.33358C24.6668 6.96539 24.3683 6.66691 24.0001 6.66691C18.7535 6.66691 18.6621 0.933578 18.6608 0.666911C18.6608 0.298721 18.3623 0.000244201 17.9941 0.000244201ZM20.9615 7.33358C19.5963 8.05373 18.5411 9.24761 17.9941 10.6909C17.4472 9.24761 16.392 8.05373 15.0268 7.33358C16.392 6.61343 17.4472 5.41955 17.9941 3.97625C18.5411 5.41955 19.5963 6.61343 20.9615 7.33358Z" fill="black"/>
<path d="M4.00024 20.0029V20.0069C4.00227 20.3751 4.30239 20.6719 4.67058 20.6699C5.03877 20.6679 5.3356 20.3678 5.33358 19.9996C5.33358 19.8362 5.38958 15.9996 8.66691 15.9996C9.0351 15.9996 9.33358 15.7011 9.33358 15.3329C9.33358 14.9647 9.0351 14.6662 8.66691 14.6662C5.38958 14.6662 5.33358 10.8282 5.33358 10.6662V10.6622C5.33247 10.294 5.0331 9.99646 4.66491 9.99756C4.29672 9.99867 3.99914 10.298 4.00024 10.6662C4.00024 10.8296 3.94424 14.6662 0.666911 14.6662C0.298721 14.6662 0.000244141 14.9647 0.000244141 15.3329C0.000244141 15.7011 0.298721 15.9996 0.666911 15.9996C3.94424 15.9996 4.00024 19.8376 4.00024 19.9996V20.0029ZM3.10424 15.3329C3.77943 14.8828 4.31957 14.2576 4.66691 13.5242C5.01425 14.2576 5.55439 14.8828 6.22958 15.3329C5.55452 15.7832 5.01442 16.4083 4.66691 17.1416C4.31941 16.4083 3.7793 15.7832 3.10424 15.3329Z" fill="black"/>
<path d="M7.19549 5.47079L8.19549 6.47079C8.45707 6.72344 8.87288 6.71983 9.13003 6.46267C9.38719 6.20552 9.3908 5.78971 9.13815 5.52813L8.13815 4.52813C7.97077 4.35482 7.7229 4.28532 7.48981 4.34633C7.25673 4.40734 7.0747 4.58937 7.01369 4.82246C6.95268 5.05554 7.02218 5.30341 7.19549 5.47079Z" fill="black"/>
<path d="M5.19569 3.47148C5.45727 3.72413 5.87308 3.72052 6.13023 3.46336C6.38739 3.20621 6.391 2.7904 6.13835 2.52882L5.13835 1.52882C4.87677 1.27617 4.46096 1.27978 4.20381 1.53694C3.94665 1.79409 3.94304 2.2099 4.19569 2.47148L5.19569 3.47148Z" fill="black"/>
<path d="M4.1958 6.47124C4.45613 6.73149 4.87813 6.73149 5.13847 6.47124L6.13847 5.47124C6.39112 5.20965 6.3875 4.79385 6.13035 4.53669C5.87319 4.27954 5.45739 4.27592 5.1958 4.52857L4.1958 5.52857C3.93555 5.78891 3.93555 6.21091 4.1958 6.47124Z" fill="black"/>
<path d="M7.66691 3.66637C7.84371 3.66633 8.01325 3.59607 8.13824 3.47104L9.13824 2.47104C9.31155 2.30365 9.38105 2.05579 9.32004 1.8227C9.25903 1.58961 9.077 1.40758 8.84392 1.34657C8.61083 1.28556 8.36296 1.35507 8.19558 1.52837L7.19558 2.52837C7.00497 2.71903 6.94796 3.00573 7.05112 3.25481C7.15429 3.50389 7.39731 3.66631 7.66691 3.66637Z" fill="black"/>
</g>
<defs>
<clipPath id="clip0_1_107">
<rect width="40" height="40" fill="white"/>
</clipPath>
</defs>
</svg>
