<svg width="40" height="40" viewBox="0 0 40 40" fill="none" xmlns="http://www.w3.org/2000/svg">
<g clip-path="url(#clip0_1_99)">
<path d="M38.7502 23.1249V19.9999H37.5002V23.1249H36.2502V19.9999H35.0002V23.1249H33.7502V19.9999H32.5002V23.1249C32.3345 23.1249 32.1755 23.1907 32.0583 23.3079C31.9411 23.4251 31.8752 23.5841 31.8752 23.7499V26.2499C31.8763 27.1353 32.1906 27.9918 32.7625 28.6678C33.3345 29.3437 34.1272 29.7954 35.0002 29.943V30.6699C33.9057 30.8281 32.9116 31.395 32.2181 32.2564C31.5246 33.1179 31.1831 34.2101 31.2623 35.3132C31.3415 36.4163 31.8356 37.4485 32.645 38.202C33.4545 38.9556 34.5193 39.3747 35.6252 39.3749V38.1249C34.7964 38.1249 34.0016 37.7956 33.4155 37.2096C32.8295 36.6235 32.5002 35.8287 32.5002 34.9999C32.5002 34.1711 32.8295 33.3762 33.4155 32.7902C34.0016 32.2041 34.7964 31.8749 35.6252 31.8749C35.791 31.8749 35.95 31.809 36.0672 31.6918C36.1844 31.5746 36.2502 31.4156 36.2502 31.2499V29.9424C37.1232 29.7948 37.9158 29.3432 38.4877 28.6674C39.0596 27.9916 39.374 27.1352 39.3752 26.2499V23.7499C39.3752 23.5841 39.3094 23.4251 39.1922 23.3079C39.075 23.1907 38.916 23.1249 38.7502 23.1249ZM38.1252 26.2499C38.1252 26.9129 37.8618 27.5488 37.393 28.0176C36.9242 28.4865 36.2883 28.7499 35.6252 28.7499C34.9622 28.7499 34.3263 28.4865 33.8575 28.0176C33.3886 27.5488 33.1252 26.9129 33.1252 26.2499V24.3749H38.1252V26.2499Z" fill="black"/>
<path d="M24.7008 8.04833L31.0658 11.5202L28.1815 17.8658C28.1234 17.994 28.1103 18.138 28.1442 18.2746C28.1782 18.4112 28.2572 18.5323 28.3686 18.6183C28.4799 18.7044 28.6171 18.7503 28.7578 18.7487C28.8985 18.7471 29.0346 18.6981 29.144 18.6096L39.1439 10.4846C39.2296 10.4149 39.2953 10.3237 39.3343 10.2204C39.3733 10.117 39.3842 10.0052 39.3659 9.89626C39.3476 9.78733 39.3008 9.6852 39.2302 9.60026C39.1595 9.51532 39.0677 9.4506 38.9639 9.41271L32.6433 7.11396L34.349 1.42646C34.3863 1.30157 34.3837 1.16811 34.3415 1.04477C34.2993 0.921433 34.2196 0.814383 34.1135 0.738609C34.0074 0.662835 33.8803 0.62213 33.7499 0.622192C33.6195 0.622255 33.4925 0.663081 33.3864 0.738957L24.6365 6.98896C24.5503 7.0504 24.4812 7.13269 24.4355 7.22814C24.3899 7.32359 24.3692 7.42906 24.3755 7.53468C24.3817 7.64029 24.4147 7.74259 24.4713 7.83199C24.5278 7.9214 24.6062 7.99497 24.699 8.04583L24.7008 8.04833ZM32.6252 2.82021L31.2752 7.32021C31.2294 7.47302 31.2437 7.63758 31.3153 7.78016C31.3869 7.92273 31.5103 8.03254 31.6602 8.08708L37.5002 10.2096L30.4189 15.9633L32.4439 11.5083C32.5094 11.3646 32.518 11.2014 32.468 11.0516C32.418 10.9018 32.3132 10.7765 32.1746 10.7008L26.1746 7.42833L32.6252 2.82021Z" fill="black"/>
<path d="M24.5002 25.0149L19.3752 23.8749V21.6811C20.4043 20.7621 21.0585 19.496 21.2127 18.1249H21.5627C22.0589 18.126 22.5406 17.9579 22.9285 17.6485C23.3164 17.3391 23.5872 16.9067 23.6964 16.4227C23.8056 15.9387 23.7466 15.4319 23.5292 14.9859C23.3117 14.5399 22.9488 14.1813 22.5002 13.9693V12.4999C22.5002 12.3341 22.4344 12.1751 22.3171 12.0579C22.1999 11.9407 22.041 11.8749 21.8752 11.8749H21.8339C21.7105 10.836 21.2493 9.86635 20.5215 9.11488L21.0696 8.56675L20.1858 7.683L19.5415 8.32488C18.8722 7.91927 18.1249 7.65944 17.3483 7.56238L17.4814 7.02925C17.505 6.93693 17.5071 6.84045 17.4876 6.74718C17.4682 6.65392 17.4276 6.56634 17.3691 6.49114C17.3106 6.41594 17.2357 6.3551 17.1501 6.31329C17.0645 6.27147 16.9705 6.24978 16.8752 6.24988H14.3752C14.2802 6.24988 14.1864 6.27154 14.1011 6.31321C14.0157 6.35489 13.9409 6.41547 13.8825 6.49037C13.824 6.56527 13.7834 6.6525 13.7638 6.74545C13.7441 6.83839 13.7459 6.9346 13.769 7.02675L13.8939 7.52675C13.1048 7.60247 12.3454 7.86654 11.6796 8.29675L11.0677 7.6855L10.184 8.56925L10.7183 9.10363C10.0048 9.86797 9.54993 10.8375 9.41833 11.8749H9.3752C9.20944 11.8749 9.05047 11.9407 8.93326 12.0579C8.81605 12.1751 8.7502 12.3341 8.7502 12.4999V13.9693C8.30162 14.1813 7.93868 14.5399 7.72123 14.9859C7.50378 15.4319 7.44478 15.9387 7.55398 16.4227C7.66317 16.9067 7.93403 17.3391 8.32191 17.6485C8.70978 17.9579 9.19152 18.126 9.6877 18.1249H10.0371C10.192 19.4955 10.8464 20.7611 11.8752 21.6799V23.8749L6.7352 25.0186C5.8799 25.2279 5.10401 25.6816 4.50225 26.3245C3.90049 26.9673 3.49888 27.7714 3.34645 28.6386L0.647077 38.5861C0.621915 38.6788 0.61845 38.776 0.636952 38.8703C0.655454 38.9645 0.695424 39.0532 0.753759 39.1295C0.812095 39.2058 0.887227 39.2676 0.973324 39.3102C1.05942 39.3527 1.15416 39.3749 1.2502 39.3749H29.3752C29.4678 39.3748 29.5593 39.3541 29.643 39.3144C29.7266 39.2746 29.8004 39.2168 29.859 39.145C29.9175 39.0732 29.9594 38.9893 29.9816 38.8993C30.0037 38.8094 30.0056 38.7156 29.9871 38.6249L27.9171 28.6993C27.77 27.8184 27.3679 26.9999 26.7606 26.3451C26.1534 25.6903 25.3675 25.2278 24.5002 25.0149ZM20.6252 38.1249H10.6252V36.048L13.2452 34.9999H18.0052L20.6252 36.048V38.1249ZM21.4827 35.0443L18.3577 33.7943C18.2837 33.765 18.2048 33.7499 18.1252 33.7499H13.1252C13.0456 33.7499 12.9667 33.765 12.8927 33.7943L9.7677 35.0443C9.65174 35.0907 9.55237 35.1709 9.48241 35.2744C9.41245 35.3779 9.3751 35.5 9.3752 35.6249V38.1249H8.1252V25.9893L9.3752 25.7111V31.8749C9.3752 32.0406 9.44105 32.1996 9.55826 32.3168C9.67547 32.434 9.83444 32.4999 10.0002 32.4999H21.2502C21.416 32.4999 21.5749 32.434 21.6921 32.3168C21.8094 32.1996 21.8752 32.0406 21.8752 31.8749V25.7111L23.1252 25.9893V38.1249H21.8752V35.6249C21.8753 35.5 21.838 35.3779 21.768 35.2744C21.698 35.1709 21.5987 35.0907 21.4827 35.0443ZM15.6252 27.9774C16.4622 27.9764 17.2748 27.6954 17.9336 27.1792C18.5925 26.6629 19.0597 25.9411 19.2608 25.1286L20.6252 25.4324V31.2499H10.6252V25.4324L11.9896 25.1286C12.1907 25.9411 12.6579 26.6629 13.3168 27.1792C13.9756 27.6954 14.7882 27.9764 15.6252 27.9774ZM10.0002 13.7499V13.1249H21.2502V13.7499H10.0002ZM21.5627 16.8749H21.2502V14.9999H21.5627C21.8113 14.9999 22.0498 15.0987 22.2256 15.2745C22.4014 15.4503 22.5002 15.6887 22.5002 15.9374C22.5002 16.186 22.4014 16.4245 22.2256 16.6003C22.0498 16.7761 21.8113 16.8749 21.5627 16.8749ZM16.0746 7.49988L15.7621 8.74988H15.4883L15.1758 7.49988H16.0746ZM11.6008 9.98425L12.0583 10.4418L12.9421 9.558L12.5871 9.203C13.0844 8.93349 13.6369 8.78148 14.2021 8.75863L14.394 9.52675C14.4278 9.66191 14.5059 9.78187 14.6157 9.86759C14.7255 9.95331 14.8609 9.99987 15.0002 9.99988H16.2502C16.3896 9.99984 16.525 9.95319 16.6349 9.86735C16.7447 9.7815 16.8227 9.6614 16.8564 9.52613L17.0439 8.77613C17.5937 8.83213 18.128 8.99115 18.6189 9.24488L18.3064 9.55738L19.1902 10.4411L19.6277 10.0036C20.1219 10.5189 20.4497 11.1709 20.5683 11.8749H10.6814C10.8003 11.1696 11.1195 10.5133 11.6008 9.98425ZM8.7502 15.9374C8.7502 15.6887 8.84897 15.4503 9.02479 15.2745C9.2006 15.0987 9.43906 14.9999 9.6877 14.9999H10.0002V16.8749H9.6877C9.43906 16.8749 9.2006 16.7761 9.02479 16.6003C8.84897 16.4245 8.7502 16.186 8.7502 15.9374ZM11.2502 17.4999V14.9999H20.0002V17.4999C20.0002 18.6602 19.5393 19.773 18.7188 20.5935C17.8983 21.4139 16.7855 21.8749 15.6252 21.8749C14.4649 21.8749 13.3521 21.4139 12.5316 20.5935C11.7111 19.773 11.2502 18.6602 11.2502 17.4999ZM15.6252 23.1249C16.4934 23.1238 17.3494 22.9203 18.1252 22.5305V24.2274C18.1252 24.8904 17.8618 25.5263 17.393 25.9951C16.9241 26.464 16.2882 26.7274 15.6252 26.7274C14.9622 26.7274 14.3263 26.464 13.8574 25.9951C13.3886 25.5263 13.1252 24.8904 13.1252 24.2274V22.5311C13.901 22.9207 14.757 23.124 15.6252 23.1249ZM4.56645 28.9055C4.66788 28.2964 4.93794 27.7279 5.34601 27.2645C5.75408 26.8011 6.28384 26.4613 6.8752 26.2836V38.1249H2.06708L4.56645 28.9055ZM24.3752 38.1249V26.2843C24.9694 26.4649 25.5011 26.8086 25.9099 27.2763C26.3187 27.7439 26.5881 28.3168 26.6877 28.9299L28.6064 38.1249H24.3752Z" fill="black"/>
</g>
<defs>
<clipPath id="clip0_1_99">
<rect width="40" height="40" fill="white"/>
</clipPath>
</defs>
</svg>
