<svg width="10" height="10" viewBox="0 0 10 10" fill="none" xmlns="http://www.w3.org/2000/svg">
<g clip-path="url(#clip0_1_1743)">
<path d="M4.75492 0.000488281C2.77134 0.000488281 1.15759 1.61426 1.15759 3.59782C1.15759 4.416 1.72156 5.61244 2.83379 7.15392C3.63789 8.26835 4.42902 9.14887 4.46229 9.18582L4.75495 9.5106L5.04761 9.18582C5.08088 9.1489 5.87201 8.26835 6.67611 7.15392C7.78834 5.61244 8.35231 4.41602 8.35231 3.59782C8.35228 1.61426 6.73851 0.000488281 4.75492 0.000488281ZM4.75492 8.32429C3.764 7.16584 1.94544 4.79285 1.94544 3.59782C1.94544 2.04868 3.20576 0.788334 4.75492 0.788334C6.30409 0.788334 7.56441 2.04868 7.56441 3.59782C7.56443 4.79285 5.74585 7.16584 4.75492 8.32429Z" fill="#9C9C9C"/>
<path d="M4.7548 4.90328C5.47558 4.90328 6.05989 4.31897 6.05989 3.59818C6.05989 2.8774 5.47558 2.29309 4.7548 2.29309C4.03402 2.29309 3.44971 2.8774 3.44971 3.59818C3.44971 4.31897 4.03402 4.90328 4.7548 4.90328Z" fill="#9C9C9C"/>
</g>
<defs>
<clipPath id="clip0_1_1743">
<rect width="9.51009" height="9.51009" fill="white"/>
</clipPath>
</defs>
</svg>
