<svg width="40" height="40" viewBox="0 0 40 40" fill="none" xmlns="http://www.w3.org/2000/svg">
<g clip-path="url(#clip0_1_125)">
<path d="M35.5866 5.04114H34.6275V2.11731C34.6275 0.949888 33.6776 0.00012207 32.5102 0.00012207H6.75191C5.58449 0.00012207 4.63473 0.949888 4.63473 2.11731V2.39434H2.88301C2.55871 2.39434 2.2959 2.65715 2.2959 2.98145V8.27504C2.2959 8.59934 2.55871 8.86215 2.88301 8.86215H4.63473V9.13926C4.63473 10.3067 5.58449 11.2564 6.75191 11.2564H10.5993V14.1791C10.5993 15.4583 11.64 16.499 12.9193 16.499C14.1984 16.499 15.2391 15.4583 15.2391 14.1791V11.2564H24.3462C24.6705 11.2564 24.9333 10.9936 24.9333 10.6693C24.9333 10.345 24.6705 10.0822 24.3462 10.0822H15.239V5.22637C15.239 4.59465 15.753 4.08075 16.3847 4.08075C17.0164 4.08075 17.5304 4.59465 17.5304 5.22637V6.54231C17.5304 7.82145 18.5711 8.86215 19.8503 8.86215C21.1294 8.86215 22.1701 7.82145 22.1701 6.54231V1.17434H32.5102C33.0302 1.17434 33.4532 1.59739 33.4532 2.11731V9.13926C33.4532 9.65926 33.0302 10.0823 32.5102 10.0823H26.6945C26.3702 10.0823 26.1074 10.3451 26.1074 10.6694C26.1074 10.9937 26.3702 11.2565 26.6945 11.2565H32.5102C33.6776 11.2565 34.6275 10.3068 34.6275 9.13934V6.21536H35.5866C36.1066 6.21536 36.5296 6.6384 36.5296 7.15833V11.673C36.5296 12.1322 36.2014 12.5228 35.7492 12.6018L21.4847 15.0986C20.4695 15.2763 19.7325 16.1533 19.7325 17.1841V19.2293H18.0673C17.743 19.2293 17.4802 19.4922 17.4802 19.8165V22.0216H17.3528C17.0285 22.0216 16.7657 22.2844 16.7657 22.6087V36.4462C16.7657 38.4058 18.36 40.0001 20.3196 40.0001C22.2792 40.0001 23.8735 38.4058 23.8735 36.4462V31.8334C23.8735 31.5091 23.6107 31.2463 23.2864 31.2463C22.9621 31.2463 22.6993 31.5091 22.6993 31.8334V36.4462C22.6993 37.7585 21.6318 38.826 20.3195 38.826C19.0073 38.826 17.9397 37.7585 17.9397 36.4462V23.1957H22.6993V29.485C22.6993 29.8093 22.9621 30.0722 23.2864 30.0722C23.6107 30.0722 23.8735 29.8093 23.8735 29.485V22.6086C23.8735 22.2843 23.6107 22.0215 23.2864 22.0215H23.1589V19.8164C23.1589 19.4921 22.8961 19.2293 22.5718 19.2293H20.9066V17.184C20.9066 16.7249 21.2348 16.3343 21.687 16.2552L35.9514 13.7584C36.9668 13.5807 37.7037 12.7037 37.7037 11.6729V7.15833C37.7039 5.9909 36.754 5.04114 35.5866 5.04114ZM3.47012 7.68793V3.56848H4.63473V7.68793H3.47012ZM20.996 6.54231C20.996 7.17403 20.4821 7.68793 19.8503 7.68793C19.2186 7.68793 18.7046 7.17403 18.7046 6.54231V5.22637C18.7046 3.94723 17.6639 2.90653 16.3847 2.90653C15.1055 2.90653 14.0648 3.94723 14.0648 5.22637V14.179C14.0648 14.8107 13.5508 15.3247 12.9191 15.3247C12.2874 15.3247 11.7735 14.8107 11.7735 14.179V6.80247C11.7735 6.47817 11.5107 6.21536 11.1864 6.21536C10.8621 6.21536 10.5993 6.47817 10.5993 6.80247V10.0822H6.75191C6.23199 10.0822 5.80895 9.65918 5.80895 9.13918V2.11731C5.80895 1.59731 6.23199 1.17434 6.75191 1.17434H10.5993V4.45411C10.5993 4.7784 10.8621 5.04122 11.1864 5.04122C11.5107 5.04122 11.7736 4.7784 11.7736 4.45411V1.17426H20.996V6.54231ZM21.9848 22.0216H18.6544V20.4036H21.9848V22.0216Z" fill="black"/>
</g>
<defs>
<clipPath id="clip0_1_125">
<rect width="40" height="40" fill="white"/>
</clipPath>
</defs>
</svg>
