<svg width="40" height="40" viewBox="0 0 40 40" fill="none" xmlns="http://www.w3.org/2000/svg">
<g clip-path="url(#clip0_1_146)">
<path d="M21.25 35.6256H21.12L18.7338 25.4824C18.7128 25.3931 18.6724 25.3095 18.6154 25.2376C18.5585 25.1657 18.4865 25.1071 18.4044 25.0662L12.5 22.1143V16.8756H18.125C18.4876 16.875 18.8422 16.7692 19.1459 16.5712C19.4496 16.3732 19.6894 16.0914 19.8363 15.7599L31.25 18.6137V19.4887C30.8854 19.6176 30.5695 19.8561 30.3458 20.1715C30.122 20.4869 30.0012 20.8638 30 21.2506V22.5006C30 22.6663 30.0658 22.8253 30.1831 22.9425C30.3003 23.0597 30.4592 23.1256 30.625 23.1256H33.125C33.2908 23.1256 33.4497 23.0597 33.5669 22.9425C33.6842 22.8253 33.75 22.6663 33.75 22.5006V21.2506C33.7484 20.8641 33.6274 20.4877 33.4037 20.1726C33.1799 19.8576 32.8643 19.6194 32.5 19.4906V18.1256C32.5 17.9861 32.4533 17.8507 32.3675 17.7409C32.2816 17.631 32.1615 17.553 32.0263 17.5193L19.9212 14.493C19.8116 14.1006 19.5768 13.7547 19.2526 13.5079C18.9284 13.2611 18.5325 13.1268 18.125 13.1255H13.9831L12.5 12.3755V10.6255C12.5 9.96251 12.2366 9.32662 11.7678 8.85778C11.2989 8.38894 10.663 8.12555 10 8.12555H6.875C6.43012 8.12773 5.9941 8.25017 5.61312 8.47992L4.81687 7.68367C4.69969 7.56646 4.54075 7.50058 4.375 7.50055H1.25C1.08424 7.50055 0.925268 7.5664 0.808058 7.68361C0.690848 7.80082 0.625 7.95979 0.625 8.12555V20.6256C0.625 20.7913 0.690848 20.9503 0.808058 21.0675C0.925268 21.1847 1.08424 21.2506 1.25 21.2506H4.41625C4.60083 23.0774 5.48123 24.7633 6.875 25.9587V38.7506C6.875 38.9163 6.94085 39.0753 7.05806 39.1925C7.17527 39.3097 7.33424 39.3756 7.5 39.3756H11.25C11.7401 39.3785 12.2118 39.1891 12.5637 38.8481C12.9156 38.507 13.1197 38.0415 13.1321 37.5515C13.1444 37.0616 12.9641 36.5864 12.6298 36.228C12.2955 35.8696 11.834 35.6567 11.3444 35.6349L12.4175 28.1256L14.5062 28.6481L16.875 36.3449V38.7506C16.875 38.9163 16.9408 39.0753 17.0581 39.1925C17.1753 39.3097 17.3342 39.3756 17.5 39.3756H21.25C21.7473 39.3756 22.2242 39.178 22.5758 38.8264C22.9275 38.4747 23.125 37.9978 23.125 37.5006C23.125 37.0033 22.9275 36.5264 22.5758 36.1747C22.2242 35.8231 21.7473 35.6256 21.25 35.6256ZM32.5 21.8756H31.25V21.2506C31.25 21.0848 31.3158 20.9258 31.4331 20.8086C31.5503 20.6914 31.7092 20.6256 31.875 20.6256C32.0408 20.6256 32.1997 20.6914 32.3169 20.8086C32.4342 20.9258 32.5 21.0848 32.5 21.2506V21.8756ZM13.8338 14.3755H18.125C18.2908 14.3755 18.4497 14.4414 18.5669 14.5586C18.6842 14.6758 18.75 14.8348 18.75 15.0006C18.75 15.1663 18.6842 15.3253 18.5669 15.4425C18.4497 15.5597 18.2908 15.6256 18.125 15.6256H12.1544L9.15438 13.8837C8.97602 13.778 8.84426 13.6087 8.7856 13.4099C8.72693 13.211 8.7457 12.9974 8.83813 12.8118C8.88396 12.7169 8.94833 12.6321 9.02744 12.5624C9.10654 12.4928 9.19879 12.4396 9.29875 12.4062C9.39572 12.3734 9.49828 12.3604 9.60036 12.3679C9.70245 12.3754 9.802 12.4033 9.89313 12.4499L13.5538 14.3081C13.6406 14.352 13.7364 14.3752 13.8338 14.3755ZM10 9.37555C10.3315 9.37555 10.6495 9.50725 10.8839 9.74167C11.1183 9.97609 11.25 10.294 11.25 10.6255V11.7387L10.4556 11.3355C10.2173 11.2134 9.95689 11.1403 9.68982 11.1204C9.42275 11.1006 9.15441 11.1344 8.90063 11.2199C8.64336 11.3052 8.40575 11.4411 8.20181 11.6196C7.99787 11.7981 7.83171 12.0156 7.71312 12.2593C7.48159 12.7295 7.43668 13.2699 7.58741 13.7719C7.73815 14.2738 8.07336 14.7001 8.52562 14.9649L11.25 16.5462V18.7506H5.625V10.6255C5.625 10.294 5.7567 9.97609 5.99112 9.74167C6.22554 9.50725 6.54348 9.37555 6.875 9.37555H10ZM1.875 8.75055H4.11625L4.72937 9.36367C4.49962 9.74465 4.37718 10.1807 4.375 10.6255V20.0006H1.875V8.75055ZM11.875 37.5006C11.875 37.6663 11.8092 37.8253 11.6919 37.9425C11.5747 38.0597 11.4158 38.1256 11.25 38.1256H8.125V36.8756H11.25C11.4158 36.8756 11.5747 36.9414 11.6919 37.0586C11.8092 37.1758 11.875 37.3348 11.875 37.5006ZM10.0831 35.6256H8.125V26.8131C8.65369 27.1016 9.21668 27.3223 9.80062 27.4699L11.1981 27.8193L10.0831 35.6256ZM15.1513 27.5193L10.1031 26.2574C8.8241 25.9372 7.68874 25.1989 6.87739 24.1596C6.06605 23.1203 5.62524 21.8397 5.625 20.5212V20.0006H11.25V21.4893L10.9044 21.3162L10.3456 22.4349L17.5837 26.0537L19.8356 35.6256H17.9606L15.5975 27.9418C15.5658 27.8389 15.5081 27.7459 15.4299 27.6719C15.3517 27.5979 15.2557 27.5453 15.1513 27.5193ZM21.25 38.1256H18.125V36.8756H21.25C21.4158 36.8756 21.5747 36.9414 21.6919 37.0586C21.8092 37.1758 21.875 37.3348 21.875 37.5006C21.875 37.6663 21.8092 37.8253 21.6919 37.9425C21.5747 38.0597 21.4158 38.1256 21.25 38.1256Z" fill="black"/>
<path d="M11.875 4.37555C11.875 3.63387 11.6551 2.90885 11.243 2.29216C10.831 1.67548 10.2453 1.19483 9.56006 0.911003C8.87484 0.627174 8.12084 0.552912 7.39341 0.697606C6.66598 0.842301 5.9978 1.19945 5.47335 1.7239C4.9489 2.24835 4.59175 2.91653 4.44706 3.64396C4.30236 4.37139 4.37662 5.12539 4.66045 5.81061C4.94428 6.49584 5.42493 7.08151 6.04161 7.49356C6.6583 7.90562 7.38332 8.12555 8.125 8.12555C9.11926 8.12456 10.0725 7.72915 10.7756 7.02611C11.4786 6.32306 11.874 5.36981 11.875 4.37555ZM8.125 6.87555C7.63055 6.87555 7.1472 6.72893 6.73608 6.45423C6.32495 6.17952 6.00452 5.78908 5.8153 5.33226C5.62608 4.87544 5.57658 4.37278 5.67304 3.88783C5.7695 3.40287 6.0076 2.95742 6.35723 2.60778C6.70687 2.25815 7.15232 2.02005 7.63728 1.92359C8.12223 1.82712 8.6249 1.87663 9.08171 2.06585C9.53853 2.25507 9.92897 2.5755 10.2037 2.98663C10.4784 3.39775 10.625 3.8811 10.625 4.37555C10.625 5.03859 10.3616 5.67448 9.89277 6.14332C9.42393 6.61216 8.78804 6.87555 8.125 6.87555Z" fill="black"/>
<path d="M32.5 24.3755H31.25V25.6255H32.5V24.3755Z" fill="black"/>
<path d="M32.5 26.8755H31.25V28.1255H32.5V26.8755Z" fill="black"/>
<path d="M32.5 29.3755H31.25V30.6255H32.5V29.3755Z" fill="black"/>
<path d="M28.9332 23.9336L27.6833 25.1834L28.5672 26.0673L29.817 24.8175L28.9332 23.9336Z" fill="black"/>
<path d="M27.0582 25.8086L25.8083 27.0584L26.6922 27.9423L27.942 26.6925L27.0582 25.8086Z" fill="black"/>
<path d="M25.1832 27.6836L23.9333 28.9334L24.8172 29.8173L26.067 28.5675L25.1832 27.6836Z" fill="black"/>
<path d="M34.1922 23.9338L33.3083 24.8177L34.5582 26.0675L35.442 25.1836L34.1922 23.9338Z" fill="black"/>
<path d="M36.0667 25.8088L35.1829 26.6927L36.4327 27.9425L37.3166 27.0586L36.0667 25.8088Z" fill="black"/>
<path d="M37.9422 27.6838L37.0583 28.5677L38.3082 29.8175L39.192 28.9336L37.9422 27.6838Z" fill="black"/>
<path d="M29.8338 33.9074L30.2794 33.6849C30.4006 33.6244 30.4989 33.5261 30.5594 33.4049L31.1844 32.1549L30.0656 31.5962L29.5344 32.6587L29.2675 32.7918C29.1661 32.6664 29.0538 32.5504 28.9319 32.4449C29.2159 32.1116 29.3729 31.6885 29.375 31.2505C29.375 30.7533 29.1775 30.2764 28.8258 29.9247C28.4742 29.5731 27.9973 29.3755 27.5 29.3755C27.0027 29.3755 26.5258 29.5731 26.1742 29.9247C25.8225 30.2764 25.625 30.7533 25.625 31.2505C25.6268 31.6889 25.7838 32.1125 26.0681 32.4462C25.9462 32.5516 25.8339 32.6677 25.7325 32.793L25.4656 32.6599L24.9344 31.5974L23.8156 32.1562L24.4406 33.4062C24.5011 33.5274 24.5994 33.6257 24.7206 33.6862L25.1662 33.9087C25.0579 34.2626 25.0019 34.6304 25 35.0005H23.75V36.2505H25.2119C25.2577 36.3754 25.3107 36.4975 25.3706 36.6162L24.7206 36.9412C24.5994 37.0017 24.5011 37.1 24.4406 37.2212L23.8156 38.4712L24.9344 39.0299L25.4656 37.9674L26.1531 37.6249C26.5278 37.9488 27.0066 38.127 27.5019 38.127C27.9972 38.127 28.4759 37.9488 28.8506 37.6249L29.5381 37.9674L30.0694 39.0299L31.1881 38.4712L30.5631 37.2212C30.5026 37.1 30.4043 37.0017 30.2831 36.9412L29.6331 36.6162C29.6918 36.4974 29.7436 36.3753 29.7881 36.2505H31.25V35.0005H30C29.9982 34.63 29.9422 34.2617 29.8338 33.9074ZM27.5 30.6255C27.6236 30.6255 27.7444 30.6622 27.8472 30.7309C27.95 30.7996 28.0301 30.8972 28.0774 31.0114C28.1247 31.1256 28.1371 31.2512 28.113 31.3725C28.0889 31.4937 28.0293 31.6051 27.9419 31.6925C27.8545 31.7799 27.7432 31.8394 27.6219 31.8635C27.5007 31.8877 27.375 31.8753 27.2608 31.828C27.1466 31.7807 27.049 31.7006 26.9803 31.5978C26.9117 31.495 26.875 31.3742 26.875 31.2505C26.875 31.0848 26.9408 30.9258 27.0581 30.8086C27.1753 30.6914 27.3342 30.6255 27.5 30.6255ZM27.5 36.8755C26.8225 36.8755 26.25 36.0168 26.25 35.0005C26.25 33.9843 26.8225 33.1255 27.5 33.1255C28.1775 33.1255 28.75 33.9843 28.75 35.0005C28.75 36.0168 28.1775 36.8755 27.5 36.8755Z" fill="black"/>
<path d="M39.375 36.2505V35.0005H38.125C38.1232 34.63 38.0672 34.2617 37.9588 33.9074L38.4044 33.6849C38.5256 33.6244 38.6239 33.5261 38.6844 33.4049L39.3094 32.1549L38.1906 31.5962L37.6594 32.6587L37.3925 32.7918C37.2911 32.6664 37.1788 32.5504 37.0569 32.4449C37.3409 32.1116 37.4979 31.6885 37.5 31.2505C37.5 30.7533 37.3025 30.2764 36.9508 29.9247C36.5992 29.5731 36.1223 29.3755 35.625 29.3755C35.1277 29.3755 34.6508 29.5731 34.2992 29.9247C33.9475 30.2764 33.75 30.7533 33.75 31.2505C33.7518 31.6889 33.9088 32.1125 34.1931 32.4462C34.0712 32.5516 33.9589 32.6677 33.8575 32.793L33.5906 32.6599L33.0594 31.5974L31.9406 32.1562L32.5656 33.4062C32.6261 33.5274 32.7244 33.6257 32.8456 33.6862L33.2912 33.9087C33.1829 34.2626 33.1269 34.6304 33.125 35.0005H31.875V36.2505H33.3369C33.3827 36.3754 33.4357 36.4975 33.4956 36.6162L32.8456 36.9412C32.7244 37.0017 32.6261 37.1 32.5656 37.2212L31.9406 38.4712L33.0594 39.0299L33.5906 37.9674L34.2781 37.6249C34.6528 37.9488 35.1316 38.127 35.6269 38.127C36.1222 38.127 36.6009 37.9488 36.9756 37.6249L37.6631 37.9674L38.1944 39.0299L39.3131 38.4712L38.6881 37.2212C38.6276 37.1 38.5293 37.0017 38.4081 36.9412L37.7581 36.6162C37.8168 36.4974 37.8686 36.3753 37.9131 36.2505H39.375ZM35.625 30.6255C35.7486 30.6255 35.8694 30.6622 35.9722 30.7309C36.075 30.7996 36.1551 30.8972 36.2024 31.0114C36.2497 31.1256 36.2621 31.2512 36.238 31.3725C36.2139 31.4937 36.1543 31.6051 36.0669 31.6925C35.9795 31.7799 35.8682 31.8394 35.7469 31.8635C35.6257 31.8877 35.5 31.8753 35.3858 31.828C35.2716 31.7807 35.174 31.7006 35.1053 31.5978C35.0367 31.495 35 31.3742 35 31.2505C35 31.0848 35.0658 30.9258 35.1831 30.8086C35.3003 30.6914 35.4592 30.6255 35.625 30.6255ZM35.625 36.8755C34.9475 36.8755 34.375 36.0168 34.375 35.0005C34.375 33.9843 34.9475 33.1255 35.625 33.1255C36.3025 33.1255 36.875 33.9843 36.875 35.0005C36.875 36.0168 36.3025 36.8755 35.625 36.8755Z" fill="black"/>
</g>
<defs>
<clipPath id="clip0_1_146">
<rect width="40" height="40" fill="white"/>
</clipPath>
</defs>
</svg>
