<svg width="40" height="40" viewBox="0 0 40 40" fill="none" xmlns="http://www.w3.org/2000/svg">
<g clip-path="url(#clip0_1_73)">
<path d="M37.3543 20.7706C38.6005 20.1475 39.3749 18.8944 39.3749 17.5006V16.8744C39.3749 15.4956 38.2536 14.3744 36.8749 14.3744H35.6249V16.8744H34.3749V14.3744H33.1249C31.7461 14.3744 30.6249 15.4956 30.6249 16.8744V17.5006C30.6249 18.8944 31.3993 20.1475 32.6455 20.7706L33.1249 21.0106V26.8744H29.3749V23.1244C29.3749 22.435 28.8143 21.8744 28.1249 21.8744V14.3744C28.1249 13.685 27.5643 13.1244 26.8749 13.1244H25.6249C24.9355 13.1244 24.3749 13.685 24.3749 14.3744V21.8744C23.7274 21.8744 23.1986 22.3719 23.1374 23.0038C22.5849 22.7613 22.0005 22.5881 21.4005 22.5138L16.7524 21.9325L16.5261 21.0269C18.1011 20.0031 19.2861 18.5531 19.9661 16.8744H20.6249C22.0036 16.8744 23.1249 15.7531 23.1249 14.3744C23.1249 12.9956 22.0036 11.8744 20.6249 11.8744H21.8749C22.5643 11.8744 23.1249 11.3138 23.1249 10.6244V9.37439C23.1249 8.68501 22.5643 8.12439 21.8749 8.12439V6.24939C21.8749 4.01314 20.1874 2.16689 18.0205 1.90814C17.7711 1.16501 17.0761 0.62439 16.2499 0.62439H11.2499C10.4236 0.62439 9.72863 1.16501 9.47925 1.90814C7.31238 2.16689 5.62488 4.01314 5.62488 6.24939V8.12439C4.9355 8.12439 4.37488 8.68501 4.37488 9.37439V10.6244C4.37488 11.3138 4.9355 11.8744 5.62488 11.8744H6.87488C5.49613 11.8744 4.37488 12.9956 4.37488 14.3744C4.37488 15.7531 5.49613 16.8744 6.87488 16.8744H7.53425C8.21425 18.5531 9.39925 20.0038 10.9743 21.0269L10.748 21.9325L6.09988 22.5138C2.97863 22.9031 0.624878 25.5694 0.624878 28.715V34.3744C0.624878 37.1313 2.868 39.3744 5.62488 39.3744H13.1249C13.8143 39.3744 14.3749 38.8138 14.3749 38.1244H19.4899C19.7486 38.85 20.4361 39.3744 21.2499 39.3744H37.4999C38.5336 39.3744 39.3749 38.5331 39.3749 37.4994V28.7494C39.3749 27.7156 38.5336 26.8744 37.4999 26.8744H36.8749V21.0106L37.3543 20.7706ZM26.8749 26.8744V25.6244H28.1249V26.8744H26.8749ZM11.8749 29.3744H6.87488V28.1244H10.9599C11.2355 28.4588 11.5368 28.7738 11.8749 29.0525V29.3744ZM6.87488 26.8744V25.6244H9.64925C9.773 26.0569 9.93613 26.475 10.1405 26.8744H6.87488ZM9.40988 24.3744H6.87488V23.6763L9.37488 23.3638V23.7494C9.37488 23.9594 9.39113 24.1669 9.40988 24.3744ZM6.87488 30.6244H11.8749V33.1244H6.87488V30.6244ZM15.6249 30.6244H19.3749V31.9256C19.2505 31.895 19.1224 31.8744 18.9886 31.8744C18.7361 31.8744 18.4824 31.9344 18.2568 32.0469L16.1024 33.1244H15.6249V30.6244ZM19.3749 28.7494V29.3744H15.6249V29.0525C15.9624 28.7731 16.2643 28.4588 16.5399 28.1244H19.4905C19.4199 28.3206 19.3749 28.5294 19.3749 28.7494ZM20.6249 24.3744H18.0899C18.1086 24.1669 18.1249 23.9594 18.1249 23.7494V23.3638L20.6249 23.6763V24.3744ZM17.8505 25.6244H20.6249V26.8744H17.3599C17.5643 26.475 17.7274 26.0569 17.8505 25.6244ZM21.8749 23.8756C22.3149 23.9881 22.7311 24.1644 23.1249 24.3931V26.8744H21.8749V23.8756ZM24.3749 25.6244H25.6249V26.8744H24.3749V25.6244ZM25.6249 14.3744H26.8749V21.8744H25.6249V14.3744ZM28.1249 23.1244V24.3744H24.3749V23.1244H28.1249ZM12.1218 21.5888C12.6436 21.77 13.1911 21.8744 13.7499 21.8744C14.3086 21.8744 14.8561 21.77 15.378 21.5888L15.543 22.2481L13.7499 23.5931L11.9568 22.2488L12.1218 21.5888ZM16.6486 19.3744C16.3599 19.62 16.0568 19.8519 15.7286 20.0569C14.5411 20.7994 12.9586 20.7994 11.7711 20.0569C11.443 19.8519 11.1399 19.62 10.8511 19.3744H16.6486ZM10.633 18.1244C10.7068 17.4225 11.3018 16.8744 12.023 16.8744C12.2386 16.8744 12.4549 16.9256 12.648 17.0219L13.7499 17.5731L14.8524 17.0219C15.0455 16.925 15.2618 16.8744 15.4774 16.8744C16.198 16.8744 16.793 17.4225 16.8674 18.1244H10.633ZM21.8749 14.3744C21.8749 15.0638 21.3143 15.6244 20.6249 15.6244H20.3661C20.5343 14.9319 20.6249 14.2125 20.6249 13.4781V13.1244C21.3143 13.1244 21.8749 13.685 21.8749 14.3744ZM20.6249 6.24939V8.12439H18.1249V3.18751C19.5493 3.47814 20.6249 4.74064 20.6249 6.24939ZM13.1249 1.87439H14.3749V4.99939C14.3749 5.34376 14.0949 5.62439 13.7499 5.62439C13.4049 5.62439 13.1249 5.34376 13.1249 4.99939V1.87439ZM11.2499 1.87439H11.8749V4.99939C11.8749 6.03314 12.7161 6.87439 13.7499 6.87439C14.7836 6.87439 15.6249 6.03314 15.6249 4.99939V1.87439H16.2499C16.5949 1.87439 16.8749 2.15501 16.8749 2.49939V8.12439H10.6249V2.49939C10.6249 2.15501 10.9049 1.87439 11.2499 1.87439ZM6.87488 6.24939C6.87488 4.74064 7.9505 3.47814 9.37488 3.18751V8.12439H6.87488V6.24939ZM5.62488 10.6244V9.37439H21.8749L21.8755 10.6244H5.62488ZM6.87488 15.6244C6.1855 15.6244 5.62488 15.0638 5.62488 14.3744C5.62488 13.685 6.1855 13.1244 6.87488 13.1244V13.4781C6.87488 14.2131 6.9655 14.9319 7.13363 15.6244H6.87488ZM8.12488 13.4781V11.8744H19.3749V13.4781C19.3749 15.04 18.9043 16.5156 18.0736 17.7644C17.8361 16.5469 16.7636 15.6244 15.4774 15.6244C15.0686 15.6244 14.6586 15.7213 14.293 15.9038L13.7499 16.1756L13.2068 15.9038C12.8411 15.7213 12.4318 15.6244 12.0224 15.6244C10.7361 15.6244 9.66363 16.5469 9.42613 17.7644C8.5955 16.5156 8.12488 15.04 8.12488 13.4781ZM11.0774 23.1506L13.7499 25.1556L16.4224 23.1506L16.8749 23.2075V23.7494C16.8749 25.51 16.0336 27.1925 14.6243 28.2494L14.3749 28.4369V33.1244H13.1249V28.4369L12.8755 28.2494C11.4661 27.1925 10.6249 25.51 10.6249 23.7494V23.2075L11.0774 23.1506ZM1.87488 34.3744V28.715C1.87488 26.4156 3.44863 24.4413 5.62488 23.8788V33.1244H4.37488V34.3744H10.6249V38.1244H5.62488C3.55675 38.1244 1.87488 36.4425 1.87488 34.3744ZM11.8749 38.1244V34.3744H13.1249V38.1244H11.8749ZM14.3749 34.3744H16.3974L18.8155 33.165C19.058 33.0425 19.3755 33.2375 19.3749 33.5106V34.3744H21.2499C21.5949 34.3744 21.8749 34.6544 21.8749 34.9994V36.2494C21.8749 36.5944 21.5949 36.8744 21.2499 36.8744H14.3749V34.3744ZM37.4999 38.1244H21.2499C22.2836 38.1244 23.1249 37.2831 23.1249 36.2494V34.9994C23.1249 33.9656 22.2836 33.1244 21.2499 33.1244H20.6249V31.8744H26.8749C26.8749 32.5638 27.4355 33.1244 28.1249 33.1244H30.6249C31.3143 33.1244 31.8749 32.5638 31.8749 31.8744H38.1249V37.4994C38.1249 37.8444 37.8449 38.1244 37.4999 38.1244ZM28.1249 31.8744V30.6244H30.6249L30.6261 31.8744H28.1249ZM38.1249 28.7494V30.6244H31.8749C31.8749 29.935 31.3143 29.3744 30.6249 29.3744H28.1249C27.4355 29.3744 26.8749 29.935 26.8749 30.6244H20.6249V28.7494C20.6249 28.4044 20.9049 28.1244 21.2499 28.1244H37.4999C37.8449 28.1244 38.1249 28.4044 38.1249 28.7494ZM34.3749 26.8744V20.2381L33.2049 19.6531C32.3843 19.2431 31.8749 18.4181 31.8749 17.5006V16.8744C31.8749 16.185 32.4355 15.6244 33.1249 15.6244V16.8744C33.1249 17.5638 33.6855 18.1244 34.3749 18.1244H35.6249C36.3143 18.1244 36.8749 17.5638 36.8749 16.8744V15.6244C37.5643 15.6244 38.1249 16.185 38.1249 16.8744V17.5006C38.1249 18.4181 37.6155 19.2425 36.7949 19.6525L35.6249 20.2381V26.8744H34.3749Z" fill="black"/>
<path d="M11.2499 14.3744C11.5951 14.3744 11.8749 14.0946 11.8749 13.7494C11.8749 13.4042 11.5951 13.1244 11.2499 13.1244C10.9047 13.1244 10.6249 13.4042 10.6249 13.7494C10.6249 14.0946 10.9047 14.3744 11.2499 14.3744Z" fill="black"/>
<path d="M16.2499 14.3744C16.5951 14.3744 16.8749 14.0946 16.8749 13.7494C16.8749 13.4042 16.5951 13.1244 16.2499 13.1244C15.9047 13.1244 15.6249 13.4042 15.6249 13.7494C15.6249 14.0946 15.9047 14.3744 16.2499 14.3744Z" fill="black"/>
</g>
<defs>
<clipPath id="clip0_1_73">
<rect width="40" height="40" fill="white"/>
</clipPath>
</defs>
</svg>
