<svg width="40" height="40" viewBox="0 0 40 40" fill="none" xmlns="http://www.w3.org/2000/svg">
<g clip-path="url(#clip0_1_132)">
<path d="M39.4785 0.521294C39.4766 0.519419 39.4745 0.517778 39.4726 0.515903C39.1417 0.188013 38.6858 0.00012207 38.2204 0.00012207H38.2181C37.8158 0.00012207 37.422 0.138403 37.1095 0.389106C32.8557 3.78676 28.5862 7.29379 24.4191 10.8125C23.4058 11.6681 22.3916 12.5304 21.3784 13.3974L9.80985 1.82895C8.66751 0.686763 6.80892 0.686919 5.66665 1.82895L0.172353 7.32333C-0.0564746 7.55223 -0.0564746 7.92317 0.172353 8.152C0.401182 8.38075 0.772197 8.38075 1.00095 8.152L4.83806 4.31497L5.67657 5.15348L1.83954 8.99051C1.61071 9.21942 1.61071 9.59036 1.83954 9.81918C1.95392 9.93356 2.10392 9.99075 2.25384 9.99075C2.40376 9.99075 2.55376 9.93356 2.66813 9.81918L6.50524 5.98215L7.34376 6.82067L3.50665 10.6577C3.27782 10.8866 3.27782 11.2575 3.50665 11.4864C3.62102 11.6007 3.77102 11.6579 3.92095 11.6579C4.07087 11.6579 4.22087 11.6007 4.33524 11.4864L8.17235 7.64926L9.01087 8.48778L5.17384 12.3248C4.94501 12.5537 4.94501 12.9247 5.17384 13.1535C5.28821 13.2679 5.43821 13.325 5.58813 13.325C5.73806 13.325 5.88806 13.2679 6.00243 13.1535L9.83946 9.31645L10.678 10.155L6.84095 13.992C6.61212 14.2209 6.61212 14.5918 6.84095 14.8207C6.95532 14.935 7.10532 14.9922 7.25524 14.9922C7.40517 14.9922 7.55517 14.935 7.66954 14.8207L11.5066 10.9836L12.3451 11.8222L8.50806 15.6592C8.27923 15.8881 8.27923 16.259 8.50806 16.4879C8.62243 16.6022 8.77243 16.6594 8.92235 16.6594C9.07227 16.6594 9.22227 16.6022 9.33665 16.4879L13.1737 12.6508L14.0122 13.4893L10.1752 17.3264C9.94634 17.5553 9.94634 17.9262 10.1752 18.155C10.2895 18.2694 10.4395 18.3266 10.5895 18.3266C10.7394 18.3266 10.8894 18.2694 11.0038 18.155L14.8408 14.318L15.6794 15.1566L11.8424 18.9936C11.6135 19.2225 11.6135 19.5935 11.8424 19.8223C11.9567 19.9367 12.1067 19.9939 12.2566 19.9939C12.4066 19.9939 12.5566 19.9367 12.6709 19.8223L16.5081 15.9852L17.3761 16.8532C15.577 18.42 13.7871 19.9961 12.0174 21.5742C12.0166 21.5742 12.0167 21.5742 12.0167 21.575C11.4909 22.0426 10.9175 22.5812 10.3518 23.0914C10.0052 23.3421 10.0713 23.7828 10.2432 23.9547C10.2432 23.9547 10.2432 23.9555 10.244 23.9555C10.8081 24.6383 11.1198 25.5102 11.1198 26.4117C11.1198 27.4656 10.7143 28.4515 9.97766 29.1875C9.97024 29.1949 8.21813 30.9471 8.21048 30.9547C5.66243 33.5621 1.17517 31.7828 1.17259 28.09C1.17415 25.848 2.98485 23.9963 5.27251 23.9947C6.51852 23.9954 7.68181 24.5501 8.46384 25.515C8.67595 25.7764 9.0654 25.8047 9.31227 25.5806C9.3154 25.5782 9.31774 25.5759 9.32087 25.5728L9.32634 25.568C9.60079 25.3213 9.58142 24.8767 9.27477 24.6571C8.27321 23.4915 6.81618 22.8228 5.27642 22.8228H5.2686C2.33907 22.8228 -0.00264649 25.2083 0.000791008 28.09C-0.00178712 30.2614 1.32517 32.1793 3.28821 32.9767C4.45384 33.4487 5.73071 33.4812 6.88415 33.1115C5.78477 36.5315 8.34345 40.0001 11.8997 40.0001H11.9059C14.8119 40.0001 17.1802 37.6476 17.177 34.7298C17.1785 33.3431 16.6441 32.0345 15.6746 31.0438C15.6752 31.0432 16.871 29.6837 16.871 29.6837C18.982 27.3347 21.07 24.975 23.1327 22.6097L24.0156 23.4925L20.1785 27.3295C19.9497 27.5584 19.9497 27.9293 20.1785 28.1582C20.293 28.2725 20.443 28.3297 20.5929 28.3297C20.7428 28.3297 20.8928 28.2725 21.0073 28.1582L24.8443 24.3211L25.6828 25.1597L21.8458 28.9967C21.617 29.2256 21.617 29.5965 21.8458 29.8254C21.9602 29.9397 22.1102 29.9969 22.2602 29.9969C22.4101 29.9969 22.5601 29.9397 22.6745 29.8254L26.5116 25.9883L27.35 26.8268L23.513 30.6638C23.2841 30.8927 23.2841 31.2636 23.513 31.4925C23.6274 31.6068 23.7774 31.664 23.9274 31.664C24.0773 31.664 24.2273 31.6068 24.3417 31.4925L28.1788 27.6554L29.0172 28.4939L25.1802 32.331C24.9513 32.5599 24.9513 32.9308 25.1802 33.1597C25.2946 33.274 25.4446 33.3312 25.5945 33.3312C25.7445 33.3312 25.8945 33.274 26.0089 33.1597L29.8459 29.3225L30.6845 30.1611L26.8474 33.9981C26.6186 34.227 26.6186 34.5979 26.8474 34.8268C26.9619 34.9411 27.1119 34.9983 27.2618 34.9983C27.4117 34.9983 27.5617 34.9411 27.6762 34.8268L31.5132 30.9897L32.3517 31.8282L28.5146 35.6652C28.2858 35.8941 28.2858 36.265 28.5146 36.4939C28.6291 36.6082 28.7791 36.6654 28.929 36.6654C29.0789 36.6654 29.2289 36.6082 29.3434 36.4939L33.1804 32.6568L34.0188 33.4953L30.1818 37.3323C29.953 37.5612 29.953 37.9322 30.1818 38.161C30.2963 38.2754 30.4463 38.3325 30.5962 38.3325C30.7461 38.3325 30.8961 38.2754 31.0106 38.161L34.8476 34.324L35.686 35.1624L31.849 38.9994C31.6202 39.2283 31.6202 39.5993 31.849 39.8281C31.9634 39.9425 32.1134 39.9997 32.2634 39.9997C32.4133 39.9997 32.5633 39.9425 32.6777 39.8281L36.9285 35.5772C36.9287 35.5771 36.9289 35.5768 36.9291 35.5767C36.9294 35.5765 36.9295 35.5763 36.9297 35.5761L38.172 34.3337C38.7254 33.7804 39.0302 33.0447 39.0302 32.2621C39.0302 31.4795 38.7254 30.7438 38.1721 30.1904L26.5907 18.6099C31.0832 13.3691 35.4384 8.11247 39.6113 2.88997C40.1775 2.18129 40.1203 1.16301 39.4785 0.521294ZM5.66673 3.48629L6.49532 2.6577C7.18063 1.97239 8.29587 1.97239 8.98126 2.6577L20.4866 14.1631C19.7443 14.8007 19.0027 15.4401 18.2625 16.0822L5.66673 3.48629ZM37.3432 31.0197C37.6752 31.3516 37.8581 31.793 37.8581 32.2625C37.8581 32.7321 37.6752 33.1735 37.3432 33.5054L36.5146 34.334C36.1274 33.947 24.7353 22.5548 23.904 21.7236C24.547 20.9835 25.1877 20.2429 25.8254 19.5019L37.3432 31.0197ZM16.3254 28.5364C16.0414 28.319 15.2842 27.9425 15.1583 26.8735C15.1231 26.5782 14.8739 26.3563 14.5778 26.3563C14.2238 26.3563 13.9541 26.6637 13.9942 27.0111C13.995 27.0111 13.995 27.0111 13.995 27.0111C14.1067 27.9664 14.6255 28.8111 15.4177 29.3274C15.4591 29.3548 15.5005 29.3829 15.5434 29.4141C15.137 29.8778 14.8016 30.2682 14.4169 30.693C14.3099 30.8118 14.2552 30.9718 14.2677 31.1312C14.2794 31.2906 14.3583 31.4406 14.4825 31.5414C15.4659 32.3441 16.0042 33.4994 16.0052 34.7297C16.0035 36.9879 14.1844 38.8266 11.9037 38.8282C9.64946 38.8252 7.8022 37.0084 7.8022 34.7297C7.80485 32.8753 8.97774 31.8822 9.06782 31.7547L10.8061 30.0165C11.7638 29.0588 12.292 27.7632 12.292 26.4117C12.2927 25.4242 12.0099 24.4703 11.4756 23.6547C11.9344 23.2352 12.3334 22.8629 12.7967 22.45L12.7991 22.4468C25.5033 11.1193 37.6913 1.38208 37.9204 1.2509C37.7633 1.40801 14.902 24.2594 14.7966 24.3782C14.5817 24.6204 14.6044 24.9915 14.8458 25.2056C15.0884 25.4217 15.4601 25.3964 15.6731 25.1564C15.7432 25.0765 38.5816 2.24645 38.7491 2.07903C38.7012 2.16333 29.2649 14.1157 16.3254 28.5364Z" fill="black"/>
<path d="M7.34665 26.0222C5.49845 24.1741 2.34494 25.5058 2.34509 28.0934C2.34509 28.8755 2.65001 29.6111 3.20369 30.1647C3.77486 30.7357 4.52486 31.0211 5.27517 31.0211C6.02525 31.0211 6.77556 30.7356 7.34665 30.1647C8.49017 29.0214 8.49033 27.1656 7.34665 26.0222ZM6.51814 29.3359C5.83275 30.021 4.71759 30.0211 4.0322 29.3359C2.93455 28.2383 3.70314 26.3369 5.27517 26.3369C6.85173 26.337 7.6108 28.2434 6.51814 29.3359Z" fill="black"/>
<path d="M11.9033 31.7998C10.6985 31.7998 9.66357 32.4915 9.20232 33.6051C8.7388 34.7242 8.98005 35.9485 9.83185 36.8001C10.3976 37.3657 11.1265 37.6623 11.8791 37.6623C12.2593 37.6623 12.6458 37.5865 13.02 37.4315C14.1382 36.9682 14.8329 35.9326 14.8329 34.7288C14.8328 33.1138 13.5186 31.7998 11.9033 31.7998ZM12.5714 36.3489C12.0472 36.566 11.2699 36.5809 10.6603 35.9714C10.0504 35.3616 10.0665 34.5809 10.2849 34.0536C10.5015 33.5305 11.0404 32.9716 11.9032 32.9716C12.8724 32.9716 13.6609 33.7599 13.6609 34.7288C13.6609 35.5905 13.0981 36.1307 12.5714 36.3489Z" fill="black"/>
</g>
<defs>
<clipPath id="clip0_1_132">
<rect width="40" height="40" fill="white"/>
</clipPath>
</defs>
</svg>
